<?xml version="1.0" standalone="no"?>
<!DOCTYPE svg PUBLIC "-//W3C//DTD SVG 20010904//EN"
 "http://www.w3.org/TR/2001/REC-SVG-20010904/DTD/svg10.dtd">
<svg version="1.0" xmlns="http://www.w3.org/2000/svg"
 width="694.000000pt" height="453.000000pt" viewBox="0 0 694.000000 453.000000"
 preserveAspectRatio="xMidYMid meet">

<g transform="translate(0.000000,453.000000) scale(0.100000,-0.100000)"
fill="#000000" stroke="none">
<path d="M1 4401 l2 -129 146 -7 c80 -3 180 -9 221 -13 l75 -7 -4 -195 c-2
-114 -7 -200 -14 -208 -13 -16 -3 -240 12 -255 7 -7 15 -6 25 2 11 10 12 19 4
42 -10 30 -6 205 6 216 6 6 36 -58 36 -76 0 -5 4 -13 10 -16 5 -3 8 0 5 7 -9
23 12 389 23 400 6 6 37 7 86 3 l76 -7 0 -122 c0 -66 -5 -139 -10 -161 -6 -22
-13 -58 -16 -80 -3 -22 -8 -42 -11 -45 -3 -3 -4 7 -1 22 7 39 -9 24 -22 -20
-14 -53 -12 -83 7 -104 9 -10 13 -21 10 -24 -4 -4 -14 7 -24 25 -16 27 -23 31
-60 31 -48 0 -51 -7 -25 -60 16 -32 21 -35 65 -38 46 -3 47 -4 47 -37 0 -18 7
-40 15 -48 13 -13 12 -17 -8 -29 -12 -8 -31 -18 -42 -23 -33 -13 7 -18 51 -6
46 13 58 6 18 -10 -16 -6 -42 -18 -59 -25 l-30 -15 43 5 44 4 -21 -22 c-29
-31 -26 -39 8 -21 18 9 41 12 59 9 35 -7 145 14 137 26 -3 5 -31 7 -63 5 l-57
-4 60 12 c33 7 63 12 66 10 17 -7 19 -76 4 -119 -14 -42 -14 -51 -1 -78 8 -17
31 -47 51 -66 93 -89 145 -312 90 -386 -7 -11 -11 -33 -8 -54 4 -25 0 -40 -11
-49 -9 -7 -16 -24 -16 -38 0 -14 -14 -38 -35 -59 -19 -19 -35 -44 -35 -56 0
-21 -37 -90 -52 -96 -5 -2 -6 -7 -3 -12 3 -5 -1 -15 -9 -22 -7 -8 -17 -25 -21
-38 -4 -14 -21 -43 -38 -64 -46 -59 -55 -99 -63 -277 -6 -137 -3 -195 16 -354
12 -104 26 -197 30 -206 6 -11 2 -29 -9 -50 -29 -55 -34 -88 -16 -115 8 -13
25 -24 37 -24 19 0 20 -4 15 -48 -3 -26 -21 -84 -41 -127 -49 -114 -51 -127
-28 -188 24 -60 42 -143 42 -192 0 -25 5 -35 20 -40 14 -5 19 -12 15 -24 -4
-15 2 -20 32 -25 64 -10 93 -7 93 9 0 8 -7 15 -15 15 -20 0 -19 18 1 22 12 2
18 17 21 58 7 85 15 91 60 44 21 -21 50 -53 65 -71 19 -22 39 -33 70 -38 l43
-8 -40 -13 c-39 -13 -39 -13 30 -9 39 3 135 8 215 11 91 4 151 11 160 19 8 6
37 21 63 31 43 17 47 22 42 44 -9 37 -36 60 -81 67 l-39 6 28 -23 c15 -12 26
-25 23 -28 -3 -3 -15 3 -25 12 -11 10 -39 20 -63 22 -92 10 -110 15 -105 28 4
9 -9 20 -34 31 -21 10 -39 22 -39 27 0 12 8 10 36 -8 38 -25 40 -10 5 42 -17
26 -31 52 -31 57 0 5 -6 23 -14 40 -7 18 -19 46 -26 62 -14 33 -14 100 1 127
15 28 18 102 6 119 -7 9 -30 25 -53 36 l-41 20 4 -26 c3 -22 2 -21 -12 8 -19
41 -19 42 0 35 12 -5 15 2 15 30 0 21 13 62 30 96 24 47 30 72 30 123 0 35 -5
68 -12 75 -8 8 -8 39 0 124 24 234 25 254 12 278 -10 19 -10 22 2 18 11 -5 14
6 13 50 0 41 4 56 15 59 9 2 17 18 19 36 9 72 3 195 -9 232 -8 22 -13 44 -11
50 1 5 -6 2 -17 -8 -13 -12 -17 -26 -14 -47 4 -25 -2 -36 -32 -63 -20 -19 -36
-40 -36 -49 0 -8 -8 -22 -18 -31 -16 -14 -17 -14 -17 9 0 13 6 24 13 24 6 0
12 7 12 15 0 8 14 24 30 37 31 23 40 64 19 85 -14 14 -3 67 11 58 16 -10 11
22 -5 39 -17 17 -20 36 -5 36 17 0 11 36 -10 60 -11 12 -17 27 -14 32 3 5 0
15 -6 23 -9 11 -9 19 -2 28 6 6 15 55 21 106 8 78 16 102 39 135 15 23 33 52
39 66 12 30 84 117 90 110 2 -3 15 19 29 47 28 60 58 195 74 332 6 51 15 101
20 110 12 21 12 8 0 -81 -5 -40 -17 -131 -25 -203 -9 -71 -18 -139 -20 -150
-4 -17 -3 -16 6 3 7 12 15 22 19 22 4 0 22 24 40 53 19 28 38 54 42 55 4 2 8
10 8 18 0 7 9 30 21 51 13 24 19 46 15 64 -3 15 -1 29 5 31 6 2 12 19 14 38 2
19 8 57 14 85 9 49 2 75 -20 75 -5 0 -30 16 -55 36 -67 51 -110 70 -207 94
l-85 21 -84 -21 c-86 -21 -201 -71 -278 -120 -51 -33 -80 -74 -81 -117 0 -24
-1 -26 -9 -8 -5 11 -9 56 -9 100 -1 90 -9 128 -23 119 -6 -4 -8 1 -5 12 3 11
9 37 12 59 21 129 48 239 76 300 17 38 35 80 41 94 7 18 11 22 17 12 6 -9 14
-3 30 22 11 19 21 42 21 51 0 9 9 34 20 56 11 22 20 44 20 50 0 6 -56 10 -159
10 -175 0 -171 2 -171 -66 0 -19 -4 -34 -10 -34 -5 0 -10 10 -10 23 0 25 -30
47 -68 50 -12 0 -22 7 -22 14 0 10 -63 13 -305 13 l-306 0 2 -129z m706 -98
c-3 -10 -5 -4 -5 12 0 17 2 24 5 18 2 -7 2 -21 0 -30z m260 -1775 c-3 -8 -6
-5 -6 6 -1 11 2 17 5 13 3 -3 4 -12 1 -19z m190 -250 c-3 -8 -6 -5 -6 6 -1 11
2 17 5 13 3 -3 4 -12 1 -19z m-7 -189 c-11 -24 -20 -36 -20 -27 0 21 33 93 38
80 1 -5 -6 -29 -18 -53z m-3 -381 c-3 -8 -6 -5 -6 6 -1 11 2 17 5 13 3 -3 4
-12 1 -19z m10 -75 c-3 -10 -5 -2 -5 17 0 19 2 27 5 18 2 -10 2 -26 0 -35z m6
-203 c-3 -12 -8 -19 -11 -16 -5 6 5 36 12 36 2 0 2 -9 -1 -20z m44 -162 c-3
-8 -6 -5 -6 6 -1 11 2 17 5 13 3 -3 4 -12 1 -19z m20 -164 c3 -21 10 -45 15
-51 19 -24 86 -163 79 -163 -4 0 -18 23 -32 52 -13 29 -33 66 -45 83 -11 17
-23 47 -27 66 -3 18 -9 43 -13 54 -5 15 -4 17 5 9 6 -6 14 -28 18 -50z"/>
<path d="M1410 4450 c-22 -45 -39 -84 -37 -87 3 -2 23 33 47 77 23 45 40 84
37 87 -3 2 -24 -32 -47 -77z"/>
<path d="M1614 4513 c-18 -57 -34 -92 -97 -218 -79 -160 -107 -210 -155 -278
-32 -44 -38 -68 -13 -53 5 4 45 48 88 99 42 51 85 101 95 111 20 22 38 15 19
-7 -6 -8 -13 -42 -14 -75 -3 -46 -10 -71 -31 -103 -22 -33 -25 -43 -14 -50 21
-14 36 -11 59 12 20 20 23 20 31 5 6 -11 16 -15 30 -10 14 4 18 2 14 -5 -4 -6
-2 -11 3 -11 30 0 54 125 76 385 8 94 17 180 21 193 6 21 4 22 -50 22 -45 0
-58 -4 -62 -17z"/>
<path d="M3263 4523 c7 -6 144 -18 309 -27 64 -3 109 -10 130 -21 24 -12 69
-18 167 -22 95 -3 141 -9 157 -19 12 -9 28 -14 36 -13 7 1 30 1 51 0 30 -1 37
-5 37 -21 0 -12 6 -33 14 -48 9 -18 13 -48 10 -85 -3 -52 -8 -61 -44 -96 -22
-21 -40 -45 -40 -54 0 -21 -21 -21 -319 -6 l-214 10 -64 56 c-52 46 -65 53
-78 43 -19 -16 -19 -40 1 -68 15 -21 14 -22 -18 -22 -19 0 -39 5 -46 12 -10
10 -11 6 -6 -18 5 -25 2 -32 -20 -42 -36 -16 -37 -62 -1 -62 28 0 34 -17 9
-27 -15 -5 -48 29 -49 52 -1 6 -6 20 -13 32 -7 12 -12 33 -12 47 0 36 -12 39
-70 16 -28 -11 -69 -20 -92 -20 -49 0 -229 -27 -278 -42 -104 -31 -236 -101
-312 -165 -34 -29 -69 -53 -78 -53 -21 0 -60 -41 -60 -64 0 -9 9 -27 21 -39
l20 -22 19 25 c11 14 20 33 20 43 0 9 5 17 11 17 6 0 8 -7 5 -16 -3 -9 -6 -31
-6 -51 0 -23 -4 -33 -12 -30 -21 6 -37 -25 -38 -70 0 -31 4 -43 14 -43 24 0
29 -20 10 -41 -9 -11 -17 -34 -16 -52 0 -17 -5 -43 -11 -56 -10 -20 -8 -26 9
-40 11 -9 23 -34 27 -55 5 -33 2 -41 -21 -62 l-27 -23 28 -1 c29 0 34 -9 16
-27 -9 -9 -8 -16 4 -27 9 -9 21 -16 27 -16 6 0 5 -12 -6 -31 -13 -26 -13 -36
-3 -60 6 -17 20 -34 31 -40 10 -5 18 -15 17 -22 -3 -12 12 -52 38 -100 10 -20
12 -32 4 -40 -5 -7 -13 -67 -17 -132 -4 -76 -11 -127 -20 -140 -8 -11 -14 -27
-14 -36 0 -10 -4 -19 -9 -21 -5 -1 -11 -10 -13 -18 -2 -8 -5 -17 -8 -20 -3 -3
-17 -23 -31 -45 -35 -55 -52 -109 -44 -145 5 -22 3 -32 -9 -36 -10 -4 -16 -18
-16 -39 0 -21 -6 -35 -16 -39 -19 -7 -8 -28 14 -25 30 3 35 -1 22 -16 -7 -8
-16 -12 -20 -10 -5 3 -19 -5 -32 -18 -18 -17 -22 -30 -17 -48 5 -16 7 -18 8
-6 1 24 21 22 21 -3 0 -11 -5 -20 -10 -20 -12 0 -2 -80 11 -94 12 -13 11 -29
0 -21 -5 3 -12 -21 -16 -52 -3 -32 -7 -75 -9 -95 -2 -20 1 -39 6 -40 7 -3 7
-11 -1 -25 -6 -12 -11 -31 -11 -43 0 -19 -7 -16 -55 25 -59 51 -69 79 -37 108
10 10 21 16 23 15 2 -2 3 -1 1 1 -1 3 10 18 25 34 16 17 21 27 13 23 -8 -4 -4
1 9 12 22 18 23 24 18 83 -16 155 -19 175 -29 196 l-10 21 -27 -28 c-14 -15
-35 -38 -45 -51 -10 -13 -58 -64 -105 -114 -102 -106 -150 -191 -179 -315 -50
-208 -58 -389 -23 -493 26 -77 104 -200 156 -246 34 -29 34 -31 14 -41 -11 -6
-24 -22 -29 -36 -16 -42 -127 -68 -228 -52 -72 11 -104 -2 -125 -50 -6 -15
-16 -30 -21 -33 -22 -16 7 -34 104 -65 57 -19 113 -34 124 -35 20 0 20 -1 1
-8 -21 -9 137 -21 245 -20 61 1 63 1 30 11 l-35 11 53 15 c48 13 58 13 116 -2
53 -15 63 -21 59 -36 -4 -16 8 -18 164 -25 194 -9 539 0 578 15 47 18 56 35
60 117 4 72 7 80 32 97 55 38 183 177 208 225 15 30 25 68 25 93 1 67 18 126
51 175 31 44 31 48 33 172 1 120 -1 131 -32 216 -45 120 -46 125 -35 125 5 0
29 -66 53 -147 25 -80 49 -151 56 -157 6 -6 9 -17 6 -25 -3 -10 0 -12 13 -7
11 4 25 0 35 -9 12 -11 24 -12 48 -6 29 9 31 7 37 -20 5 -21 13 -29 28 -29 20
-1 21 -2 5 -14 -10 -7 -18 -17 -18 -21 0 -4 6 -2 13 4 8 6 16 8 19 5 4 -3 22
-1 42 4 21 6 36 7 36 1 0 -5 -6 -9 -14 -9 -17 0 -41 -28 -32 -37 3 -3 24 -6
47 -5 23 1 46 -1 53 -5 6 -4 16 -8 21 -9 6 0 16 -2 23 -2 6 -1 12 -9 12 -18 0
-10 -7 -14 -22 -12 -32 5 -32 -12 1 -63 21 -34 41 -51 74 -65 25 -10 48 -27
51 -36 2 -10 12 -18 21 -18 13 0 15 3 6 13 -18 23 -61 127 -52 127 5 0 14 -13
21 -30 7 -16 25 -50 41 -75 27 -42 31 -45 71 -44 24 0 61 4 83 8 39 8 39 9 8
10 -49 2 -42 26 7 27 37 1 40 0 34 -20 -4 -11 -60 -128 -125 -259 -100 -200
-116 -239 -102 -244 42 -16 70 23 186 262 33 68 37 63 37 -43 0 -101 0 -102
24 -102 14 0 28 5 31 10 3 6 20 10 38 10 38 0 25 17 -18 22 l-30 3 -3 95 -3
96 33 9 c27 8 39 22 64 72 17 34 30 64 29 65 -2 2 15 4 38 5 23 1 70 5 105 8
54 6 62 5 62 -9 0 -9 7 -19 15 -22 9 -4 13 -13 10 -24 -4 -11 3 -23 20 -34 23
-15 25 -15 27 1 0 10 3 32 5 48 2 17 4 45 5 63 1 28 5 32 30 32 25 0 27 -2 18
-24 -10 -26 1 -78 21 -102 20 -24 3 -27 -19 -4 l-20 22 -7 -32 c-8 -36 4 -50
41 -50 15 0 23 -8 26 -24 7 -37 -8 -54 -57 -62 -25 -3 -48 -11 -52 -17 -4 -7
0 -8 12 -3 21 8 85 -11 85 -25 0 -5 -4 -9 -9 -9 -5 0 -11 -9 -14 -20 -6 -22
-52 -44 -77 -37 -18 5 -46 -45 -35 -63 7 -11 113 -13 298 -3 138 7 144 10 108
61 -30 41 -30 65 -1 72 23 5 25 11 26 67 1 34 5 74 8 88 4 15 3 32 -3 38 -5 7
-12 44 -16 84 -6 70 -6 72 17 78 13 3 36 1 52 -5 24 -9 26 -13 15 -26 -11 -13
-10 -17 4 -26 10 -5 15 -13 12 -18 -3 -5 9 -14 27 -19 l33 -9 -36 -1 c-58 -2
-63 -14 -57 -163 4 -97 10 -134 20 -142 8 -6 17 -19 21 -28 3 -10 17 -18 29
-18 13 0 34 -7 47 -16 15 -11 34 -15 57 -11 20 3 43 3 52 -1 10 -4 -18 -9 -63
-13 l-80 -5 94 -2 c52 -1 91 1 88 5 -15 14 18 33 58 33 25 0 46 5 49 13 3 8
10 6 22 -8 10 -12 14 -14 11 -5 -2 8 2 22 9 31 16 18 87 355 78 373 -10 21 26
-29 67 -91 22 -35 45 -62 51 -60 5 1 39 -33 74 -76 36 -42 62 -77 59 -77 -3 0
-25 18 -49 40 l-43 40 -6 -87 c-4 -71 -1 -94 12 -118 l17 -30 170 -5 c158 -6
175 -8 257 -38 48 -17 118 -37 155 -43 37 -6 74 -14 82 -17 29 -11 -98 -22
-345 -31 -244 -8 -305 -15 -305 -31 0 -5 -10 -12 -21 -15 -21 -7 -21 -11 -15
-154 3 -80 2 -152 -3 -160 -12 -18 -31 -5 -31 22 -1 16 -4 13 -14 -13 -30 -79
-36 -89 -48 -85 -7 3 -21 19 -30 35 -11 19 -22 28 -31 24 -8 -3 -18 0 -23 7
-4 7 -2 15 4 17 37 12 -12 56 -76 67 -23 4 -42 10 -42 15 0 12 28 20 45 14 17
-7 75 14 75 26 0 11 -57 23 -69 16 -5 -4 -12 -2 -15 3 -7 10 16 21 45 21 42 0
45 83 4 124 -28 28 -29 28 -214 36 -122 6 -192 5 -204 -2 -17 -9 -18 -17 -12
-66 10 -87 16 -103 39 -112 18 -8 18 -9 3 -9 -10 -1 -17 -7 -14 -13 2 -7 11
-12 21 -10 9 2 16 -2 16 -8 0 -5 7 -10 15 -10 25 0 17 -18 -15 -32 -37 -16
-38 -24 -5 -32 29 -7 34 -26 6 -26 -35 0 -51 -12 -51 -37 0 -13 -5 -33 -10
-43 -7 -14 -7 -25 2 -39 10 -16 9 -23 -5 -39 -25 -28 -21 -39 23 -67 22 -14
40 -32 40 -40 0 -13 32 -15 221 -15 121 0 218 3 215 8 -2 4 14 18 35 30 l40
23 12 -30 11 -31 268 0 268 0 0 23 c1 108 -16 157 -69 188 -33 20 -34 22 -17
35 10 7 23 15 28 16 6 2 4 23 -3 51 -6 27 -9 72 -6 102 4 37 1 59 -9 73 -17
25 -15 79 4 94 22 19 351 34 406 18 49 -13 60 -34 25 -45 -15 -5 -19 -13 -15
-29 3 -12 -2 -35 -12 -51 -22 -38 -39 -96 -47 -160 -4 -40 -1 -58 17 -92 21
-38 21 -46 9 -85 -7 -24 -14 -64 -16 -90 l-4 -48 175 0 174 0 0 330 0 330 -37
1 c-39 1 -38 3 10 13 l27 6 0 200 c0 110 -2 200 -5 200 -4 0 -19 -6 -34 -14
-24 -13 -28 -13 -28 0 0 8 3 14 7 14 3 0 15 7 26 15 17 13 15 13 -18 0 -21 -8
-44 -15 -53 -15 -22 0 -18 27 5 33 12 3 18 1 14 -5 -8 -13 33 0 64 20 l22 14
0 518 0 517 -24 -4 c-17 -4 -28 1 -37 14 -8 13 -19 18 -35 15 -24 -4 -74 38
-74 64 0 7 -6 11 -12 9 -7 -3 -20 -1 -28 4 -12 8 -10 20 16 78 16 37 37 69 45
71 8 1 28 -9 43 -23 15 -14 31 -25 36 -25 5 0 22 -12 39 -26 l31 -26 0 1101 0
1101 -291 0 c-258 0 -290 -2 -279 -15 16 -19 3 -19 -30 0 -16 9 -54 14 -103
15 -77 0 -77 0 -133 -45 -71 -58 -90 -58 -27 0 l48 44 -336 1 c-284 0 -338 -2
-349 -15 -16 -19 -31 -85 -19 -85 5 0 9 -9 9 -20 0 -13 5 -18 15 -14 18 7 20
-7 3 -24 -9 -9 -9 -15 0 -24 10 -10 15 -10 21 1 6 10 10 10 16 1 4 -6 0 -17
-8 -23 -20 -16 -30 -54 -17 -62 6 -4 8 -15 5 -26 -4 -10 -2 -19 4 -19 17 0 66
-53 69 -75 1 -12 -8 -31 -21 -44 l-25 -22 -52 102 c-51 98 -52 104 -53 188 -1
47 2 103 6 124 7 34 6 37 -16 37 -19 0 -26 -8 -38 -42 -7 -24 -22 -63 -32 -88
l-18 -45 6 64 c3 36 12 75 20 88 15 22 14 23 -7 23 -14 0 -47 -23 -81 -54 -58
-53 -59 -55 -76 -142 -22 -106 -36 -144 -54 -144 -27 0 -27 0 -2 120 11 53
-10 25 -25 -35 -8 -27 -20 -56 -27 -63 -8 -8 -12 -38 -11 -82 1 -68 -10 -100
-36 -100 -8 0 -10 21 -8 70 4 63 3 70 -13 64 -14 -6 -16 -3 -11 13 4 11 4 27
0 36 -5 15 -9 15 -35 2 -51 -27 -101 -85 -104 -120 0 -6 -8 -27 -18 -48 -10
-21 -21 -55 -24 -75 -3 -20 -12 -50 -20 -65 -12 -24 -12 -38 -2 -80 6 -29 20
-68 29 -87 l18 -35 -1 35 c-2 30 1 35 19 34 20 0 22 5 21 50 0 28 4 67 10 86
8 30 10 32 16 15 4 -11 9 -34 11 -50 2 -17 15 -55 30 -85 14 -30 26 -60 26
-66 0 -6 11 -21 25 -34 23 -22 27 -23 41 -8 15 15 14 21 -12 75 -20 39 -30 75
-31 113 -1 30 -5 76 -9 103 -4 29 -3 47 3 47 6 0 13 -18 17 -40 8 -54 39 -110
90 -165 l41 -46 90 72 c50 39 95 76 100 83 6 7 25 19 43 27 17 7 32 17 32 21
0 4 15 14 33 21 26 12 172 127 252 200 11 10 21 13 23 7 2 -5 -22 -33 -53 -61
l-56 -52 23 -24 c13 -14 50 -38 83 -53 33 -15 66 -37 73 -49 11 -19 10 -21
-14 -21 -31 0 -119 48 -164 90 l-30 28 -30 -31 c-37 -39 -37 -45 -2 -75 l27
-24 -27 16 c-32 19 -58 21 -58 5 0 -6 -6 -9 -14 -6 -18 7 -39 -17 -41 -46 -1
-11 -7 -23 -14 -25 -6 -2 -9 -8 -5 -13 3 -5 -4 -9 -16 -9 -12 0 -35 -7 -53
-16 l-32 -16 35 37 c46 50 25 37 -95 -58 -114 -91 -185 -161 -176 -173 10 -15
84 -62 116 -75 22 -9 25 -13 13 -16 -19 -5 -104 31 -130 54 -15 13 -20 14 -34
3 -14 -12 -13 -15 8 -32 13 -9 28 -18 35 -18 6 0 15 -9 18 -20 4 -11 18 -27
33 -35 l27 -14 -27 -1 c-38 0 -71 14 -112 50 l-36 32 -36 -34 c-20 -18 -46
-44 -59 -56 l-22 -24 -22 27 c-11 15 -21 31 -21 35 0 4 16 20 35 34 19 15 35
33 35 39 0 7 -20 46 -44 87 -25 40 -50 93 -57 117 -10 36 -16 43 -32 41 -40
-6 -46 -122 -12 -205 9 -20 14 -38 11 -40 -6 -6 -59 21 -78 40 -10 9 -27 17
-37 17 -11 0 -23 5 -26 10 -3 6 1 10 9 10 12 0 16 10 16 35 0 42 25 142 41
161 9 11 6 14 -16 14 -25 0 -27 -2 -21 -30 3 -17 1 -42 -5 -58 -6 -15 -14 -44
-17 -65 l-7 -37 -37 25 c-20 14 -46 25 -56 25 -11 0 -25 7 -32 15 -7 8 -24 15
-39 15 -20 0 -23 -2 -11 -10 19 -12 -20 -6 -210 30 -80 16 -167 31 -195 35
-27 3 -69 11 -92 18 l-42 11 29 12 c29 13 29 13 32 111 l3 98 85 -3 c127 -3
692 -32 718 -36 26 -4 53 31 30 39 -7 3 -93 9 -191 13 -98 5 -181 13 -186 18
-10 11 4 205 24 333 8 52 12 98 9 102 -3 5 -267 9 -586 9 -320 0 -578 -3 -575
-7z m2548 -165 c37 -71 16 -98 -37 -47 -35 34 -60 99 -49 127 5 12 11 10 36
-14 17 -16 39 -46 50 -66z m-502 -91 c-1 -31 -1 -31 -9 -7 -11 36 -11 52 0 45
6 -3 10 -21 9 -38z m361 -40 c0 -4 -9 -3 -20 3 -11 6 -20 15 -20 20 0 6 9 5
20 -2 11 -7 20 -16 20 -21z m500 3 c0 -11 -7 -20 -16 -20 -11 0 -14 -6 -8 -22
9 -31 24 -49 35 -42 5 3 9 -2 9 -10 0 -19 15 -20 75 -4 38 10 47 10 61 -3 13
-14 12 -16 -16 -16 -16 0 -40 -9 -53 -20 -23 -21 -36 -28 -147 -82 -36 -18
-87 -45 -115 -61 -27 -16 -57 -29 -65 -29 -8 0 2 8 22 17 24 11 48 34 68 65
16 26 36 50 44 53 9 3 18 26 22 52 7 49 26 95 52 125 20 23 32 22 32 -3z
m-827 -37 c9 -21 19 -49 23 -63 3 -14 14 -34 24 -45 24 -28 43 -65 32 -65 -15
0 -38 31 -76 104 -35 67 -45 106 -28 106 5 0 16 -17 25 -37z m-1805 -85 c31
-32 58 -95 46 -107 -9 -10 -164 173 -164 194 0 10 84 -52 118 -87z m2225 47
c22 -19 61 -45 86 -57 43 -21 44 -23 20 -26 -33 -4 -81 16 -137 57 -36 26 -41
35 -32 47 16 19 16 19 63 -21z m-604 11 c6 -7 13 -40 16 -73 2 -33 12 -76 20
-97 9 -21 14 -45 11 -53 -3 -8 -1 -24 5 -35 6 -11 9 -22 6 -24 -6 -6 -48 62
-63 101 -6 17 -16 29 -21 28 -5 -1 -10 10 -11 23 -1 14 2 23 7 20 5 -3 6 23 3
59 -5 65 3 80 27 51z m58 -8 c-3 -8 -6 -5 -6 6 -1 11 2 17 5 13 3 -3 4 -12 1
-19z m-306 -41 c-10 -9 -11 -8 -5 6 3 10 9 15 12 12 3 -3 0 -11 -7 -18z m349
-65 c0 -12 -3 -12 -15 -2 -8 7 -15 22 -15 34 1 21 1 21 15 2 8 -11 15 -26 15
-34z m-1900 18 c0 -5 -5 -10 -11 -10 -5 0 -7 5 -4 10 3 6 8 10 11 10 2 0 4 -4
4 -10z m1517 -87 c-3 -10 -5 -4 -5 12 0 17 2 24 5 18 2 -7 2 -21 0 -30z m389
0 c-4 -4 -11 -1 -16 7 -16 25 -11 35 7 17 9 -9 13 -20 9 -24z m-1715 10 c13
-16 12 -17 -3 -4 -17 13 -22 21 -14 21 2 0 10 -8 17 -17z m1747 -19 c-3 -14
-5 -12 -10 9 -3 19 -2 25 4 19 6 -6 8 -18 6 -28z m-1460 11 c4 -3 10 -87 11
-147 1 -42 13 -48 136 -68 77 -12 228 -50 222 -56 -2 -2 -57 7 -123 21 -128
26 -324 45 -389 37 -61 -7 -38 5 51 27 64 16 72 20 41 20 -20 1 -70 -8 -109
-19 -40 -11 -87 -20 -104 -20 -17 0 -51 -7 -74 -15 -47 -17 -64 -12 -55 15 3
10 0 24 -8 32 -7 7 -12 19 -9 26 2 7 -2 19 -8 27 -10 13 -8 15 16 17 16 0 41
0 55 -1 14 -1 31 4 37 12 8 10 27 13 60 10 56 -5 69 3 74 42 3 29 1 30 -37 31
-57 2 -63 5 -35 14 22 8 239 3 248 -5z m1305 -57 c2 -35 1 -67 -4 -72 -5 -6
-9 7 -9 31 0 22 -3 55 -6 72 -4 18 -2 31 4 31 5 0 12 -28 15 -62z m754 56 c-3
-4 -20 -16 -37 -28 -31 -21 -69 -103 -70 -150 0 -23 -44 -76 -77 -93 -32 -17
-33 -16 -33 5 0 23 35 74 44 65 4 -4 4 -1 1 8 -10 27 91 158 143 185 29 15 39
18 29 8z m-2547 -34 c-20 -13 -33 -13 -25 0 3 6 14 10 23 10 15 0 15 -2 2 -10z
m45 -80 c3 -5 -1 -10 -10 -10 -9 0 -13 5 -10 10 3 6 8 10 10 10 2 0 7 -4 10
-10z m2025 -22 c0 -13 -23 -5 -28 10 -2 7 2 10 12 6 9 -3 16 -11 16 -16z m40
-44 c0 -2 -9 0 -20 6 -11 6 -20 13 -20 16 0 2 9 0 20 -6 11 -6 20 -13 20 -16z
m-730 -34 c0 -22 -4 -40 -10 -40 -11 0 -13 39 -4 64 10 26 14 19 14 -24z
m-2081 -43 c-22 -21 -49 -29 -42 -12 3 8 9 13 13 10 4 -3 13 2 20 10 7 9 15
13 18 11 2 -3 -2 -11 -9 -19z m750 -33 c2 -2 -10 -4 -27 -4 -18 0 -32 5 -32
10 0 9 47 4 59 -6z m848 10 c-3 -3 -12 -4 -19 -1 -8 3 -5 6 6 6 11 1 17 -2 13
-5z m1478 -29 c-40 -33 -132 -81 -140 -73 -5 5 -1 17 22 57 2 2 8 -1 15 -7 9
-7 28 -2 68 19 68 35 73 35 35 4z m-1540 -15 c104 -12 194 -30 200 -41 3 -4
-32 -10 -77 -13 -388 -25 -552 -25 -562 0 -4 9 3 18 17 24 17 7 11 9 -31 9
-29 1 -51 -2 -48 -7 7 -12 -19 -40 -47 -51 -15 -6 -27 -17 -27 -25 0 -16 -53
-32 -70 -21 -5 3 -10 13 -10 21 0 8 -5 14 -11 14 -6 0 -9 9 -6 20 3 11 1 20
-4 20 -20 0 -7 21 19 31 75 30 169 39 367 34 110 -3 241 -9 290 -15z m-1530
-20 c-9 -17 -15 -45 -14 -63 1 -17 -1 -42 -5 -54 -4 -12 -3 -24 3 -27 5 -3 8
-32 6 -63 -2 -34 1 -60 7 -64 11 -7 23 -95 35 -249 3 -46 11 -90 18 -97 10
-10 29 -182 20 -191 -6 -6 -45 190 -60 298 -38 283 -49 381 -46 394 1 5 3 35
5 66 4 65 10 80 32 80 13 0 12 -4 -1 -30z m2455 5 c10 -9 46 -31 81 -50 74
-40 50 -49 -27 -10 -54 27 -108 75 -84 75 7 0 21 -7 30 -15z m398 -25 c-14
-11 -102 -58 -194 -106 -93 -48 -173 -90 -179 -94 -50 -35 -215 -75 -340 -83
-27 -2 -30 1 -30 28 0 27 4 31 43 40 24 6 39 15 35 19 -4 5 -1 7 7 4 51 -18
62 -20 56 -9 -4 6 -3 11 3 11 5 0 13 -5 17 -11 10 -17 153 -5 195 16 44 23 44
22 29 40 -18 21 -5 31 15 11 9 -9 19 -16 22 -16 12 0 233 110 278 139 55 35
81 42 43 11z m-714 -75 c3 -8 1 -15 -3 -15 -5 0 -11 7 -15 15 -3 8 -1 15 3 15
5 0 11 -7 15 -15z m-333 -5 c10 -6 19 -17 19 -24 0 -18 -157 -33 -173 -17 -31
31 105 66 154 41z m525 -67 c-7 -7 -26 7 -26 19 0 6 6 6 15 -2 9 -7 13 -15 11
-17z m-1604 -14 c30 -19 48 -38 48 -50 0 -23 -1 -23 -47 -4 -51 21 -72 42 -66
66 7 25 8 25 65 -12z m1191 -102 c16 -32 26 -61 23 -64 -8 -9 -64 46 -82 79
-20 38 -18 50 8 46 16 -2 31 -20 51 -61z m1587 3 c0 -14 -5 -18 -17 -13 -12 5
-15 2 -10 -10 4 -9 10 -24 13 -32 3 -8 2 -15 -4 -15 -14 0 -3 -42 15 -56 14
-12 13 -50 -2 -106 -6 -24 -4 -28 14 -28 12 0 21 -3 21 -8 0 -4 -22 -31 -50
-60 -47 -49 -65 -92 -39 -92 6 0 8 7 5 16 -3 9 -2 12 5 9 6 -4 8 -14 5 -22 -4
-9 1 -17 14 -20 22 -6 27 -23 8 -24 -10 0 -10 -2 0 -6 27 -11 8 -31 -60 -64
-39 -19 -98 -51 -130 -71 l-59 -38 -60 30 c-56 29 -69 50 -31 50 11 0 13 3 6
8 -6 4 -16 23 -23 42 -10 30 -9 37 6 48 12 9 32 11 56 8 29 -5 37 -3 37 9 0 8
-4 15 -10 15 -5 0 -10 11 -10 25 0 14 5 25 10 25 13 0 13 21 0 40 -9 13 -13
11 -29 -9 l-18 -24 -7 52 -7 51 126 123 c108 104 187 165 218 167 4 0 7 -9 7
-20z m-1361 -184 c10 -12 6 -15 -18 -21 -34 -7 -51 -1 -51 21 0 19 54 19 69 0z
m911 -215 c0 -11 2 -25 5 -33 3 -8 -6 -18 -24 -24 -28 -11 -29 -10 -35 20 -5
23 -2 34 11 43 25 19 43 16 43 -6z m-1995 -81 c-3 -5 -15 -10 -26 -10 -11 0
-17 5 -14 10 3 6 15 10 26 10 11 0 17 -4 14 -10z m955 -19 c14 -4 20 -10 15
-13 -6 -3 -23 0 -40 7 -32 14 -17 18 25 6z m145 -155 c62 -118 80 -172 53
-164 -20 6 -128 220 -123 242 2 11 -1 28 -7 39 -7 14 -7 17 1 13 5 -4 40 -62
76 -130z m925 124 c0 -5 -9 -10 -21 -10 -11 0 -17 5 -14 10 3 6 13 10 21 10 8
0 14 -4 14 -10z m-155 -40 c-3 -5 -10 -10 -16 -10 -5 0 -9 5 -9 10 0 6 7 10
16 10 8 0 12 -4 9 -10z m129 -54 c23 -14 41 -33 43 -45 2 -13 -1 -20 -7 -16
-5 3 -15 -5 -21 -18 l-11 -24 -61 19 c-104 32 -124 67 -54 91 58 21 66 20 111
-7z m-1055 -48 c7 -24 20 -54 28 -67 12 -18 12 -22 1 -19 -15 4 -53 78 -64
123 -12 48 20 15 35 -37z m-1899 -69 c-15 -27 -12 -120 5 -153 9 -16 13 -36
10 -44 -3 -8 0 -21 6 -28 10 -12 9 -13 -5 -8 -9 3 -16 12 -16 20 0 8 -4 14
-10 14 -5 0 -10 7 -10 15 0 8 -4 15 -10 15 -5 0 -10 7 -10 16 0 8 4 13 8 10 5
-3 8 49 8 115 -1 67 1 123 4 126 11 11 29 -80 20 -98z m2160 66 c0 -8 -9 -15
-20 -15 -20 0 -26 11 -13 23 12 13 33 7 33 -8z m903 -21 c-6 -16 -22 -18 -43
-4 -13 8 -12 10 3 10 9 0 17 4 17 10 0 5 6 7 14 4 8 -3 12 -12 9 -20z m-377
-20 c22 -9 47 -23 56 -31 14 -12 21 -13 32 -4 19 16 46 4 38 -17 -5 -15 -4
-15 12 1 21 20 16 20 55 6 36 -13 37 -16 15 -47 -10 -14 -25 -22 -45 -22 -16
0 -28 3 -28 8 4 21 -4 21 -30 3 -36 -26 -48 -26 -56 -1 -3 11 -12 20 -19 20
-19 0 -89 77 -82 89 9 14 6 14 52 -5z m-1836 -14 c0 -5 -2 -10 -4 -10 -3 0 -8
5 -11 10 -3 6 -1 10 4 10 6 0 11 -4 11 -10z m1821 -130 c18 -15 20 -19 8 -20
-9 0 -24 9 -34 20 -23 26 -4 26 26 0z m1203 -19 c4 -5 0 -11 -6 -14 -10 -4
-11 -7 0 -18 10 -10 19 -11 45 -1 45 16 47 16 47 -13 0 -33 -31 -96 -43 -88
-6 4 -8 0 -4 -10 5 -14 0 -17 -23 -17 -20 0 -30 5 -30 15 0 8 5 15 10 15 6 0
10 7 10 15 0 8 -6 15 -14 15 -14 0 -27 72 -18 98 5 14 18 16 26 3z m-1958 -38
c-4 -4 -11 -1 -16 7 -16 25 -11 35 7 17 9 -9 13 -20 9 -24z m-80 -69 c-19 -38
-35 -61 -36 -50 0 20 59 130 67 123 2 -3 -12 -36 -31 -73z m-1872 50 c9 -24 7
-28 -9 -14 -17 14 -20 30 -6 30 5 0 12 -7 15 -16z m1921 -40 l-15 -36 25 4
c32 7 38 -3 19 -31 -11 -15 -22 -20 -35 -16 -11 4 -26 1 -34 -5 -25 -21 -18 9
15 68 35 60 47 68 25 16z m955 6 c8 -15 6 -21 -11 -31 -17 -9 -25 -8 -37 5
-14 14 -14 17 3 35 19 22 29 20 45 -9z m-2750 -11 c0 -5 -4 -9 -10 -9 -5 0
-10 7 -10 16 0 8 5 12 10 9 6 -3 10 -10 10 -16z m2258 -19 c41 -18 56 -40 28
-40 -22 0 -82 28 -96 44 -10 14 -10 16 6 16 11 0 38 -9 62 -20z m-348 -7 c0
-5 -16 -26 -36 -48 -30 -34 -34 -37 -28 -15 10 38 64 91 64 63z m794 -10 c8
-19 -8 -38 -23 -29 -16 10 -13 46 3 46 8 0 17 -8 20 -17z m-2724 -37 c0 -5 -7
-3 -15 4 -8 7 -15 20 -15 28 0 13 3 12 15 -4 8 -10 15 -23 15 -28z m-101 -11
c-9 -8 -40 25 -34 35 5 8 12 4 22 -10 8 -12 13 -23 12 -25z m694 -2 c-7 -2
-19 -2 -25 0 -7 3 -2 5 12 5 14 0 19 -2 13 -5z m-570 -16 c3 -8 1 -20 -4 -28
-6 -10 -9 -7 -9 14 0 29 5 35 13 14z m3320 -36 c18 -18 -66 -14 -89 5 -18 14
-16 15 29 11 27 -3 54 -10 60 -16z m582 9 c3 -6 -1 -7 -9 -4 -18 7 -21 14 -7
14 6 0 13 -4 16 -10z m-2735 -57 c-11 -17 -11 -17 -6 0 3 10 6 24 7 30 0 9 2
9 5 0 3 -7 0 -20 -6 -30z m2234 8 c-5 -5 -22 -7 -39 -3 l-30 6 35 6 c39 7 48
4 34 -9z m476 9 c0 -5 -2 -10 -4 -10 -3 0 -8 5 -11 10 -3 6 -1 10 4 10 6 0 11
-4 11 -10z m-3221 -34 c8 -9 10 -28 5 -50 -9 -51 3 -101 26 -112 20 -9 20 -10
-7 -39 -16 -17 -36 -42 -45 -55 -15 -23 -16 -23 -11 -4 5 23 -16 70 -54 121
-14 18 -23 38 -20 45 2 7 -3 25 -11 40 -21 36 -4 56 51 61 23 2 45 4 48 5 4 1
12 -4 18 -12z m3251 -6 c0 -5 -2 -10 -4 -10 -3 0 -8 5 -11 10 -3 6 -1 10 4 10
6 0 11 -4 11 -10z m-1870 -25 c0 4 7 2 15 -5 21 -18 19 -40 -5 -40 -19 0 -40
27 -40 51 0 8 4 8 15 -1 8 -7 15 -9 15 -5z m-1254 -54 c-15 -24 -36 -11 -36
21 l0 32 21 -21 c12 -11 18 -26 15 -32z m944 10 c0 -5 -7 -11 -15 -15 -15 -5
-20 5 -8 17 9 10 23 9 23 -2z m1490 -62 c0 -47 -1 -49 -27 -49 -16 0 -45 5
-66 11 -38 10 -40 16 -22 76 4 12 55 20 93 14 19 -3 22 -9 22 -52z m807 29
c-3 -8 -6 -5 -6 6 -1 11 2 17 5 13 3 -3 4 -12 1 -19z m-3223 -24 c9 -22 -3
-32 -14 -14 -12 19 -12 30 -1 30 5 0 12 -7 15 -16z m1135 -7 c6 -8 8 -17 4
-20 -7 -8 -33 11 -33 24 0 13 16 11 29 -4z m-159 -64 c0 -20 -1 -34 -3 -32 -2
2 -14 19 -26 37 l-22 32 25 0 c23 0 26 -4 26 -37z m-139 -155 c36 -50 14 -30
-71 65 -81 90 -82 90 -16 27 37 -36 76 -77 87 -92z m-1606 121 c-4 -13 -3 -19
2 -16 6 4 8 -4 5 -18 -8 -44 -50 -24 -43 20 3 20 18 35 34 35 5 0 5 -10 2 -21z
m1169 -35 c8 -22 8 -24 -8 -24 -18 0 -29 16 -21 30 9 15 22 12 29 -6z m-1804
3 c0 -2 -15 -16 -32 -33 l-33 -29 29 33 c28 30 36 37 36 29z m4071 -148 l24
-20 -30 17 c-39 24 -40 24 -28 24 6 0 21 -9 34 -21z m-4060 -30 c30 -22 53
-44 53 -47 -1 -4 -5 -36 -9 -72 -6 -53 -5 -63 6 -52 24 23 33 12 10 -12 -19
-21 -22 -32 -17 -63 6 -37 6 -37 -8 -13 -10 16 -13 38 -9 60 4 29 3 33 -8 22
-8 -8 -14 -35 -15 -68 0 -30 -4 -54 -7 -55 -20 -2 -96 15 -121 28 -24 12 -27
19 -21 41 3 15 10 56 15 92 5 36 13 77 19 92 6 15 8 35 4 44 -6 17 20 44 42
44 6 0 36 -18 66 -41z m4169 22 c0 -18 -53 -23 -69 -7 -14 15 -11 16 27 16 23
0 42 -4 42 -9z m-1625 -21 c3 -5 1 -10 -4 -10 -6 0 -11 5 -11 10 0 6 2 10 4
10 3 0 8 -4 11 -10z m440 -49 c18 -7 17 -9 -11 -24 -35 -18 -44 -15 -37 14 6
20 16 22 48 10z m-2407 -20 c3 -8 -1 -12 -9 -9 -7 2 -15 10 -17 17 -3 8 1 12
9 9 7 -2 15 -10 17 -17z m406 -27 c17 -51 10 -78 -24 -89 -29 -9 -24 -18 22
-39 23 -11 37 -21 30 -24 -7 -2 -12 -12 -12 -23 0 -10 -4 -19 -9 -19 -11 0
-26 -75 -23 -111 3 -30 -11 -44 -53 -53 l-30 -6 28 16 c23 12 27 20 22 37 -4
12 -12 50 -17 85 -9 57 -8 72 16 146 14 45 26 92 26 104 0 33 7 27 24 -24z
m1161 -13 c-10 -16 -85 -53 -85 -42 0 11 82 63 88 56 2 -2 1 -9 -3 -14z m588
-27 c25 -9 21 -16 -19 -42 -30 -20 -41 -22 -60 -13 -13 6 -24 18 -24 26 0 17
58 47 75 40 6 -3 18 -8 28 -11z m-1183 -24 c10 0 22 -4 25 -10 3 -5 1 -10 -5
-10 -20 0 -50 20 -49 33 0 9 2 9 6 0 2 -7 13 -13 23 -13z m1045 -42 c-9 -44
-25 -60 -25 -26 0 33 9 58 22 58 6 0 7 -13 3 -32z m152 12 c-4 -14 0 -20 11
-21 14 0 14 -2 2 -6 -8 -3 -22 -11 -30 -19 -8 -7 -29 -17 -45 -23 -28 -10 -29
-10 -11 4 11 8 26 15 34 15 11 0 12 3 3 14 -10 11 -8 16 8 21 12 3 21 13 21
21 0 8 3 14 6 14 4 0 4 -9 1 -20z m-1067 0 c0 -5 -12 -10 -27 -9 l-28 1 25 8
c14 4 26 8 28 9 1 1 2 -3 2 -9z m2111 -3 c-1 -12 -15 -9 -19 4 -3 6 1 10 8 8
6 -3 11 -8 11 -12z m-2311 -7 c0 -5 -2 -10 -4 -10 -3 0 -8 5 -11 10 -3 6 -1
10 4 10 6 0 11 -4 11 -10z m-946 -12 c-5 -8 -1 -7 10 2 17 13 18 12 14 -5 -2
-11 -11 -19 -21 -19 -9 1 -17 -2 -17 -7 0 -5 -7 -9 -15 -9 -14 0 -13 3 1 25
16 25 42 36 28 13z m960 -23 c-4 -8 -8 -15 -10 -15 -2 0 -4 7 -4 15 0 8 4 15
10 15 5 0 7 -7 4 -15z m2526 -48 c0 -22 -4 -28 -17 -25 -13 2 -19 14 -21 41
-3 36 -2 37 17 25 13 -8 21 -23 21 -41z m-1460 2 c0 -5 4 -8 9 -4 5 3 12 1 15
-4 3 -5 -7 -11 -22 -14 -32 -6 -37 -3 -29 18 7 17 27 21 27 4z m1287 -26 c-3
-10 -5 -4 -5 12 0 17 2 24 5 18 2 -7 2 -21 0 -30z m-1377 12 c0 -9 10 -20 23
-25 21 -8 21 -9 -5 -9 -15 -1 -38 4 -52 11 -20 9 -23 14 -15 25 15 18 49 17
49 -2z m836 -33 c13 -31 43 -120 44 -129 0 -2 -6 -3 -14 -3 -15 0 -32 37 -22
47 3 3 -6 27 -19 54 -26 50 -33 85 -15 74 6 -4 17 -23 26 -43z m-3241 -46 c-4
-98 -12 -120 -31 -85 -12 22 -12 20 -7 -18 4 -30 2 -43 -7 -43 -8 0 -10 -12
-7 -37 2 -21 2 -29 0 -19 -4 16 -7 17 -15 5 -7 -11 -9 -9 -5 8 3 16 -2 27 -19
38 -13 8 -24 22 -24 29 0 20 -49 116 -59 116 -14 0 -21 43 -9 57 13 16 54 17
94 3 22 -8 32 -21 44 -57 8 -26 20 -49 27 -51 8 -2 7 6 -3 28 -15 28 -15 33 0
49 9 10 16 27 16 39 0 12 2 22 4 22 3 0 3 -38 1 -84z m485 74 c0 -5 -7 -10
-15 -10 -8 0 -15 5 -15 10 0 6 7 10 15 10 8 0 15 -4 15 -10z m3698 4 c34 -10
26 -30 -17 -42 -54 -17 -88 -15 -95 4 -14 36 44 56 112 38z m-1028 -44 c-8 -5
-22 -10 -30 -10 -13 0 -13 1 0 10 8 5 22 10 30 10 13 0 13 -1 0 -10z m-275
-42 c16 -25 21 -37 11 -29 -16 14 -51 71 -43 71 3 0 17 -19 32 -42z m220 22
c-3 -5 -14 -10 -23 -10 -15 0 -15 2 -2 10 20 13 33 13 25 0z m-2590 -29 c-9
-16 -25 -3 -18 15 4 10 9 12 15 6 6 -6 7 -15 3 -21z m3840 12 c5 -10 10 -76
13 -146 4 -105 7 -127 18 -123 12 5 12 2 3 -15 -11 -21 -11 -21 -29 -3 -15 16
-19 44 -25 162 -4 89 -3 142 3 142 6 0 13 -8 17 -17z m-2721 -43 c8 -16 11
-30 7 -30 -7 0 -31 43 -31 55 0 13 10 2 24 -25z m-692 -5 c-4 -26 -22 -45 -22
-25 0 12 18 50 24 50 2 0 1 -11 -2 -25z m2155 19 c-3 -3 -12 -4 -19 -1 -8 3
-5 6 6 6 11 1 17 -2 13 -5z m-396 -30 c-35 -14 -65 -23 -68 -21 -5 6 98 46
117 46 8 0 -14 -11 -49 -25z m1352 -3 c15 0 27 -5 27 -10 0 -18 -181 -33 -187
-15 -5 15 53 32 97 29 19 -1 47 -3 63 -4z m47 -70 l-41 -61 -29 17 c-21 12
-27 20 -19 28 7 7 12 6 18 -4 6 -9 11 -10 15 -2 4 6 12 8 18 5 6 -4 6 0 -1 13
-12 24 -6 33 23 33 12 0 27 9 34 21 7 12 16 19 19 16 2 -3 -14 -33 -37 -66z
m-3250 -9 c0 -24 -25 -36 -38 -19 -5 7 -7 29 -5 49 l5 38 19 -24 c10 -13 19
-33 19 -44z m3374 42 c3 -9 6 -49 6 -91 l0 -75 -32 7 c-56 12 -88 34 -88 58 0
12 16 43 35 70 36 48 68 61 79 31z m-1654 -5 c0 -4 -7 -20 -15 -35 -8 -16 -15
-39 -15 -51 0 -27 -16 -30 -28 -5 -13 23 -24 87 -16 94 8 8 74 6 74 -3z
m-2186 -46 c-9 -39 -13 -43 -33 -43 -21 0 -41 19 -41 38 0 10 7 12 24 8 16 -4
26 -1 30 9 10 27 27 17 20 -12z m506 -28 c-12 -20 -25 -34 -27 -31 -3 3 5 21
17 41 12 20 25 34 27 31 3 -3 -5 -21 -17 -41z m-460 26 c0 -5 -8 -17 -17 -27
-18 -18 -30 -6 -19 21 6 16 36 21 36 6z m1400 -11 c11 -7 4 -10 -25 -10 -29 0
-36 3 -25 10 8 5 20 10 25 10 6 0 17 -5 25 -10z m540 -5 c0 -8 -4 -15 -9 -15
-13 0 -22 16 -14 24 11 11 23 6 23 -9z m238 -26 c-1 -12 -10 -25 -18 -27 -13
-5 -13 -3 -1 11 7 9 11 27 8 38 -4 15 -3 19 4 12 6 -6 9 -21 7 -34z m-2168 -9
c0 -5 -2 -10 -4 -10 -3 0 -8 5 -11 10 -3 6 -1 10 4 10 6 0 11 -4 11 -10z m-65
-20 c3 -5 1 -10 -4 -10 -6 0 -11 5 -11 10 0 6 2 10 4 10 3 0 8 -4 11 -10z m35
-10 c0 -5 -4 -10 -10 -10 -5 0 -10 5 -10 10 0 6 5 10 10 10 6 0 10 -4 10 -10z
m-80 -20 c0 -5 -4 -10 -10 -10 -5 0 -10 5 -10 10 0 6 5 10 10 10 6 0 10 -4 10
-10z m2245 -43 c1 -31 -11 -34 -43 -11 -33 23 -28 42 11 40 28 -1 32 -5 32
-29z m-2675 -2 c-7 -9 -15 -13 -19 -10 -3 3 1 10 9 15 21 14 24 12 10 -5z
m470 6 c0 -10 -60 -44 -66 -38 -2 2 3 13 12 25 15 22 54 31 54 13z m2151 -64
c-16 -16 -26 0 -10 19 9 11 15 12 17 4 2 -6 -1 -17 -7 -23z m209 15 c0 -11
-18 -35 -40 -56 -22 -20 -40 -43 -40 -51 0 -10 -9 -12 -37 -8 -47 7 -47 7 -34
32 6 11 29 25 51 31 25 7 48 22 62 40 25 34 38 38 38 12z m-165 -12 c3 -5 -1
-10 -10 -10 -9 0 -13 5 -10 10 3 6 8 10 10 10 2 0 7 -4 10 -10z m90 0 c-3 -5
-21 -10 -38 -9 -31 1 -31 1 -7 9 36 11 52 11 45 0z m-2465 -74 c0 -2 -8 -10
-17 -17 -16 -13 -17 -12 -4 4 13 16 21 21 21 13z m-196 -25 c3 -5 -8 -11 -25
-15 -17 -3 -44 -20 -60 -37 -30 -32 -36 -32 -18 2 11 21 66 59 86 59 6 0 14
-4 17 -9z m3756 -92 c30 -25 13 -16 -55 27 -27 17 -59 42 -70 55 -19 22 70
-37 125 -82z m-3883 -24 c-7 -14 -16 -25 -20 -25 -5 0 -6 3 -4 8 2 4 7 15 10
25 4 9 11 17 16 17 5 0 4 -11 -2 -25z m643 -115 c0 -5 -15 -10 -32 -10 -25 0
-29 3 -18 10 20 13 50 13 50 0z m3269 -219 c-22 -46 -31 -53 -53 -45 -40 15
-3 84 45 84 l27 0 -19 -39z m11 -156 c0 -14 -31 -25 -73 -25 -19 0 -27 4 -24
13 2 6 11 11 19 9 9 -1 21 4 27 12 14 16 51 10 51 -9z m-616 -17 c-3 -5 -27
-6 -52 -3 -68 9 -87 16 -73 24 16 10 132 -9 125 -21z m1245 -81 c6 -8 12 -24
13 -37 4 -34 -22 -36 -67 -6 -21 15 -33 26 -26 26 6 0 11 7 11 15 0 19 53 20
69 2z m-1005 -45 c11 -13 14 -28 10 -50 -4 -18 -10 -32 -14 -32 -19 0 -101 53
-97 64 3 9 56 33 78 35 3 1 13 -7 23 -17z m-229 -46 c0 -26 -26 -40 -58 -32
-31 7 -27 32 7 46 31 13 51 7 51 -14z"/>
<path d="M3440 3860 c0 -5 5 -10 10 -10 6 0 10 5 10 10 0 6 -4 10 -10 10 -5 0
-10 -4 -10 -10z"/>
<path d="M5972 3143 c-28 -10 -47 -25 -57 -44 -15 -28 -15 -29 7 -28 13 0 46
6 73 13 47 11 50 13 50 44 1 37 -7 38 -73 15z"/>
<path d="M5840 3060 c-13 -8 -12 -10 3 -10 9 0 17 5 17 10 0 12 -1 12 -20 0z"/>
<path d="M5932 2870 c-16 -22 -31 -30 -52 -30 -17 0 -30 -5 -30 -10 0 -11 16
-9 110 9 29 6 36 12 38 34 3 23 0 27 -20 27 -15 0 -33 -11 -46 -30z"/>
<path d="M5842 2778 c5 -34 38 -37 38 -4 0 20 -5 26 -21 26 -15 0 -20 -5 -17
-22z"/>
<path d="M5517 2583 c-4 -3 -7 -15 -7 -26 0 -16 3 -17 15 -7 8 7 15 19 15 26
0 15 -12 19 -23 7z"/>
<path d="M4605 4486 c30 -29 62 -49 99 -60 30 -10 57 -24 60 -32 3 -8 11 -14
17 -14 7 0 31 -17 54 -37 81 -72 164 -107 166 -70 0 6 4 3 9 -8 8 -19 9 -19 9
2 1 12 21 43 46 69 25 25 45 52 45 59 0 8 6 18 14 22 8 5 15 29 17 61 l4 52
-292 0 -292 0 44 -44z"/>
<path d="M2990 4483 c-25 -2 -56 -13 -70 -23 l-25 -20 35 0 c61 -2 194 -17
213 -25 12 -5 17 -3 17 8 0 9 7 23 16 32 9 9 13 19 10 23 -9 8 -131 11 -196 5z"/>
<path d="M3227 4453 c-4 -3 -7 -13 -7 -21 0 -9 3 -12 7 -9 3 4 12 2 19 -4 17
-14 29 8 14 26 -14 16 -23 19 -33 8z"/>
<path d="M3145 4359 c3 -4 18 -9 34 -11 17 -2 28 -1 26 3 -3 4 -18 9 -34 11
-17 2 -28 1 -26 -3z"/>
<path d="M992 4325 c0 -16 2 -22 5 -12 2 9 2 23 0 30 -3 6 -5 -1 -5 -18z"/>
<path d="M3226 4326 c3 -9 11 -16 16 -16 13 0 5 23 -10 28 -7 2 -10 -2 -6 -12z"/>
<path d="M3130 4310 c-35 -11 -127 -59 -116 -59 22 -2 174 53 170 61 -6 10
-20 9 -54 -2z"/>
<path d="M2940 4285 c-14 -16 -10 -18 14 -9 9 3 16 10 16 15 0 14 -16 11 -30
-6z"/>
<path d="M3194 4277 c-3 -8 -19 -21 -35 -28 -39 -15 -25 -28 24 -22 27 4 37 9
33 19 -3 8 0 13 7 11 7 -1 12 5 12 13 0 20 -34 25 -41 7z"/>
<path d="M3273 4230 c-20 -8 -22 -12 -11 -35 14 -31 53 -34 68 -4 23 41 -5 60
-57 39z"/>
<path d="M4997 4227 c-4 -10 -7 -26 -7 -35 1 -15 2 -15 11 1 6 10 9 25 7 35
-3 16 -4 15 -11 -1z"/>
<path d="M1910 4181 c0 -16 3 -42 6 -59 l6 -30 157 -7 c86 -3 164 -9 174 -11
15 -5 17 -24 17 -210 0 -134 3 -203 10 -199 6 4 10 71 10 169 0 90 3 178 6
195 6 27 11 31 40 31 35 0 35 1 47 110 2 12 -30 17 -188 27 -297 18 -285 18
-285 -16z"/>
<path d="M3180 4200 c-14 -4 -47 -9 -75 -11 -34 -1 -40 -3 -20 -6 17 -2 44
-11 62 -20 27 -15 36 -15 57 -4 30 16 42 51 18 50 -10 -1 -28 -5 -42 -9z"/>
<path d="M5 4170 c4 -6 29 -10 57 -10 64 0 60 5 -10 13 -32 4 -50 2 -47 -3z"/>
<path d="M3360 4170 c0 -5 5 -10 10 -10 6 0 10 5 10 10 0 6 -4 10 -10 10 -5 0
-10 -4 -10 -10z"/>
<path d="M148 4163 c6 -2 18 -2 25 0 6 3 1 5 -13 5 -14 0 -19 -2 -12 -5z"/>
<path d="M218 4153 c18 -2 45 -2 60 0 15 2 0 4 -33 4 -33 0 -45 -2 -27 -4z"/>
<path d="M1225 3980 c-7 -12 12 -12 40 0 18 8 17 9 -7 9 -15 1 -30 -3 -33 -9z"/>
<path d="M1297 3973 c-12 -12 -7 -22 8 -17 8 4 15 10 15 15 0 11 -14 12 -23 2z"/>
<path d="M4250 3891 c0 -73 2 -79 22 -84 12 -4 23 -5 24 -4 2 2 7 136 5 155
-1 6 -12 12 -26 12 -25 0 -25 -1 -25 -79z"/>
<path d="M1565 3920 c-32 -8 -28 -11 23 -15 20 -2 32 1 29 8 -4 14 -16 16 -52
7z"/>
<path d="M4711 3896 c-16 -19 -11 -29 8 -17 7 5 12 14 9 21 -3 9 -8 7 -17 -4z"/>
<path d="M4970 3894 c0 -21 27 -92 50 -134 l25 -45 3 36 c2 29 -5 48 -37 94
-23 32 -41 54 -41 49z"/>
<path d="M5070 3754 c0 -8 5 -12 10 -9 6 4 8 11 5 16 -9 14 -15 11 -15 -7z"/>
<path d="M1775 3720 c-3 -5 -1 -10 4 -10 6 0 11 5 11 10 0 6 -2 10 -4 10 -3 0
-8 -4 -11 -10z"/>
<path d="M4659 3709 c-3 -33 3 -75 12 -84 6 -5 7 10 3 40 -7 51 -13 69 -15 44z"/>
<path d="M4937 3656 c-3 -8 -2 -18 3 -21 13 -8 24 15 12 27 -6 6 -11 4 -15 -6z"/>
<path d="M1720 3620 c0 -12 17 -12 45 0 17 7 15 9 -12 9 -18 1 -33 -3 -33 -9z"/>
<path d="M366 2152 c-3 -37 -6 -83 -6 -103 0 -44 -9 -49 -98 -49 -37 0 -85 -7
-107 -16 -22 -8 -48 -17 -57 -20 -9 -3 -20 -19 -23 -34 -3 -16 -13 -34 -21
-41 -8 -6 -14 -19 -14 -28 0 -9 -9 -33 -20 -54 -13 -24 -20 -56 -20 -93 0 -50
4 -61 33 -93 17 -20 42 -49 55 -66 26 -33 19 -15 -10 27 -31 44 -24 63 34 92
49 25 54 25 65 9 7 -9 13 -25 13 -35 0 -10 3 -18 7 -18 14 0 73 52 73 65 0 8
11 31 25 51 31 45 31 48 0 68 -28 18 -32 43 -12 70 11 15 17 16 39 5 34 -15
39 -29 26 -71 -29 -92 -68 -158 -108 -183 -22 -14 -40 -30 -40 -36 0 -6 15
-30 33 -52 27 -34 33 -53 39 -112 3 -38 9 -84 12 -102 5 -28 2 -32 -25 -42
l-31 -11 7 -83 7 -84 -30 -12 c-37 -15 -56 -7 -48 23 7 28 -4 43 -34 47 -15 3
-26 12 -29 24 -2 11 -7 22 -11 25 -5 3 -2 38 7 77 15 67 15 76 -1 117 -10 25
-35 64 -56 88 l-39 43 -1 -69 0 -69 36 6 c29 5 35 3 32 -10 -2 -9 -17 -20 -35
-25 l-31 -8 -1 -130 -1 -130 40 0 c22 0 40 -4 40 -10 0 -5 9 -10 19 -10 11 0
23 -5 27 -11 4 -7 23 -9 53 -5 130 19 130 19 136 -6 3 -13 5 -63 3 -113 l-3
-90 -97 -3 c-90 -2 -98 -4 -98 -22 0 -19 8 -20 105 -21 58 -1 111 -2 118 -3
15 -1 22 89 36 524 20 574 23 645 33 651 7 4 7 9 0 13 -6 3 -9 44 -7 100 1 52
0 98 -4 102 -18 25 -29 8 -35 -54z m-138 -290 c3 -27 -1 -34 -24 -42 -80 -31
-126 16 -57 57 52 31 77 27 81 -15z m102 -378 c0 -9 -7 -14 -17 -12 -25 5 -28
28 -4 28 12 0 21 -6 21 -16z"/>
<path d="M476 2204 c-10 -26 -7 -114 4 -114 6 0 10 28 10 65 0 66 -3 77 -14
49z"/>
<path d="M297 2193 c-10 -10 -8 -93 2 -93 5 0 11 23 13 50 3 48 -1 58 -15 43z"/>
<path d="M520 2149 c0 -28 -4 -59 -10 -69 -9 -16 -17 -214 -36 -835 -8 -255
-7 -286 6 -299 9 -9 13 47 15 244 2 105 16 525 20 580 9 121 17 430 11 430 -3
0 -6 -23 -6 -51z"/>
<path d="M18 2003 c12 -2 32 -2 45 0 12 2 2 4 -23 4 -25 0 -35 -2 -22 -4z"/>
<path d="M0 1609 c1 -8 33 -48 71 -89 l71 -75 -43 63 c-50 72 -99 123 -99 101z"/>
<path d="M517 1197 c-15 -40 -1 -78 18 -47 4 6 11 8 16 5 5 -4 9 6 9 22 -1 26
-2 27 -15 10 -13 -18 -14 -17 -17 5 -3 20 -4 21 -11 5z"/>
<path d="M5654 1133 c-4 -16 -9 -37 -10 -48 -6 -56 -26 -181 -31 -188 -3 -5 9
-2 25 7 25 13 32 24 37 58 18 135 4 254 -21 171z"/>
<path d="M5704 1101 c5 -8 10 -28 11 -45 1 -17 2 -46 3 -64 1 -18 6 -31 11
-27 15 9 21 -26 13 -80 -5 -36 -12 -51 -25 -53 -10 -2 -17 3 -17 12 0 21 -24
20 -58 -1 -73 -46 -73 -73 -1 -73 37 0 53 5 66 20 10 11 21 20 26 20 5 0 7 -9
4 -20 -4 -17 0 -20 24 -20 21 0 27 4 23 15 -4 8 -13 15 -20 15 -11 0 -12 5 -5
18 5 9 7 66 4 126 -5 106 -6 111 -36 140 -17 17 -27 25 -23 17z m-14 -291 c0
-13 -28 -25 -38 -16 -3 4 0 11 8 16 20 13 30 12 30 0z"/>
<path d="M4632 1088 c6 -18 28 -21 28 -4 0 9 -7 16 -16 16 -9 0 -14 -5 -12
-12z"/>
<path d="M38 1083 c6 -2 18 -2 25 0 6 3 1 5 -13 5 -14 0 -19 -2 -12 -5z"/>
<path d="M4765 1020 c4 -6 11 -8 16 -5 14 9 11 15 -7 15 -8 0 -12 -5 -9 -10z"/>
<path d="M4630 1006 c0 -9 5 -16 10 -16 6 0 10 4 10 9 0 6 -4 13 -10 16 -5 3
-10 -1 -10 -9z"/>
<path d="M94 938 c-10 -46 -27 -57 -32 -22 -2 12 -11 25 -20 28 -9 3 -23 9
-29 12 -10 4 -13 -13 -13 -71 l0 -76 53 3 52 3 3 83 c2 45 2 82 0 82 -3 0 -8
-19 -14 -42z"/>
<path d="M1580 971 c0 -5 7 -15 17 -22 15 -13 15 -12 4 9 -12 23 -21 28 -21
13z"/>
<path d="M522 950 c0 -14 2 -19 5 -12 2 6 2 18 0 25 -3 6 -5 1 -5 -13z"/>
<path d="M4540 909 c0 -8 15 -28 32 -45 26 -23 28 -24 12 -4 -12 14 -26 34
-32 45 -9 15 -11 16 -12 4z"/>
<path d="M5710 900 c0 -5 5 -10 10 -10 6 0 10 5 10 10 0 6 -4 10 -10 10 -5 0
-10 -4 -10 -10z"/>
<path d="M522 880 c0 -14 2 -19 5 -12 2 6 2 18 0 25 -3 6 -5 1 -5 -13z"/>
<path d="M1410 836 c0 -2 8 -10 18 -17 15 -13 16 -12 3 4 -13 16 -21 21 -21
13z"/>
<path d="M4610 830 c0 -5 5 -10 11 -10 5 0 7 5 4 10 -3 6 -8 10 -11 10 -2 0
-4 -4 -4 -10z"/>
<path d="M3931 815 c0 -11 4 -38 9 -60 6 -25 5 -44 -1 -51 -7 -9 1 -14 31 -19
23 -4 44 -4 47 -1 4 3 -3 6 -14 6 -29 0 -40 17 -56 85 -8 33 -15 51 -16 40z"/>
<path d="M4495 820 l-30 -8 35 -1 c19 -1 41 -5 49 -10 8 -5 21 -7 29 -4 9 4 4
10 -18 19 -18 8 -33 13 -34 13 0 -1 -14 -5 -31 -9z"/>
<path d="M4990 597 c-25 -6 -37 -12 -28 -14 12 -3 18 -15 18 -41 2 -89 -3 -82
55 -82 57 0 75 11 54 36 -9 11 -9 18 -1 26 7 7 12 25 12 40 0 21 -6 31 -26 38
-29 11 -24 11 -84 -3z"/>
<path d="M5745 589 c-9 -13 -6 -151 3 -227 1 -8 8 -12 15 -10 17 6 18 224 1
239 -8 7 -14 6 -19 -2z"/>
<path d="M4893 583 c9 -2 23 -2 30 0 6 3 -1 5 -18 5 -16 0 -22 -2 -12 -5z"/>
<path d="M5028 433 c-10 -2 -18 -8 -19 -11 0 -4 -2 -20 -4 -36 -3 -21 1 -29
16 -33 22 -6 25 -19 7 -26 -7 -3 3 -6 22 -6 31 0 33 1 18 13 -10 7 -15 16 -12
19 3 3 -3 12 -15 19 -30 18 -26 28 9 22 22 -5 31 -2 36 10 4 9 5 18 3 20 -9 8
-45 13 -61 9z"/>
<path d="M5000 258 c0 -12 -7 -29 -16 -39 -14 -16 -14 -20 1 -48 8 -17 22 -31
30 -31 17 0 20 -16 5 -25 -5 -3 -10 -31 -10 -61 l0 -54 51 0 50 0 -5 103 c-3
56 -6 119 -6 140 l0 37 -50 0 c-45 0 -50 -2 -50 -22z"/>
</g>
</svg>
