<svg id="Layer_1" data-name="Layer 1" xmlns="http://www.w3.org/2000/svg" viewBox="0 0 170.08 79.16"><defs><style>.cls-1{fill:#f08631;}.cls-1,.cls-2{fill-rule:evenodd;}.cls-2{fill:#2dabe2;}</style></defs><title>BikeServices</title><polygon class="cls-1" points="0 8.28 49.98 4.9 49.04 10.37 0 8.28 0 8.28"/><polygon class="cls-1" points="6.21 19.19 48.23 16.75 47.43 22.21 6.21 19.19 6.21 19.19"/><polygon class="cls-1" points="12.56 30.68 46.67 28.5 46.03 33.95 12.56 30.68 12.56 30.68"/><polygon class="cls-1" points="20.23 41.18 45.29 39.58 44.81 43.58 20.23 41.18 20.23 41.18"/><polygon class="cls-1" points="25.29 51.74 43.67 50.25 43.32 53.32 25.29 51.74 25.29 51.74"/><path class="cls-1" d="M107.63,49.34a20.8,20.8,0,1,1-20.87,20.8,20.83,20.83,0,0,1,20.87-20.8Zm-6.69,10.5,2.64,2.72a1.05,1.05,0,0,1,.28.5.73.73,0,0,1-.15.65l-1.48,1.53a.84.84,0,0,1-.53.19.8.8,0,0,1-.59-.25l-2.9-2.74s-.26,3,1.5,4.56a7.81,7.81,0,0,0,4.1,1.81L115,80s.05.07.53.24a2.08,2.08,0,0,0,1.08,0A5.66,5.66,0,0,0,118,78.75,2.93,2.93,0,0,0,118,77.2L107.19,66a6.86,6.86,0,0,0-1.28-4.22c-1.45-1.93-5-2-5-2Zm7.85,6-.09.1.94.93,6-6s.37-.19.53,0,.05.58.05.58l-6.12,5.77.77.82,6-5.92a.76.76,0,0,1,.54-.05c.22.1.06.58.06.58l-6.17,5.92,1,1,6.08-6.07s.14-.11.25-.59a1.22,1.22,0,0,0-.11-.82L116.26,60a.85.85,0,0,0-.63-.16,1.26,1.26,0,0,0-.69.22l-6.15,5.87ZM104.57,72l-1.94,1.84-2.2.37-2.75,4.3,1.52,1.69,4.44-2.75.32-1.92,2.1-2L104.57,72Z" transform="translate(0 -38.93)"/><path class="cls-2" d="M53.52,100.77l-4.59-1a3.86,3.86,0,0,1-2.67-2.76c-.37-2.13,7.47-52.45,7.47-52.45a8.78,8.78,0,0,1,1.82-3.78,8.05,8.05,0,0,1,3.68-1.9l106.85,0s2.71.64,3.55,2.5.24,5.84.24,5.84L162.71,95a10.41,10.41,0,0,1-1.32,4,5.36,5.36,0,0,1-2.77,1.69s-1-8.27-5-11.61a15.5,15.5,0,0,0-8.31-3.58l5.81-41H72.81l-6.49,41.2s-7,3.55-9.72,7.5a18.26,18.26,0,0,0-3.08,7.6ZM58.25,59.5l-3,20.2h4.26l3-20.27-4.26.07Zm98.28,6.15a3.92,3.92,0,1,0,3.91,3.91,3.91,3.91,0,0,0-3.91-3.91ZM86.72,94.79l3,6h33.37l3.46-6-39.8,0Z" transform="translate(0 -38.93)"/><path class="cls-1" d="M72,89.25a12.24,12.24,0,0,1,12.46,14.42,17.31,17.31,0,0,1-16.63,14.42,12.24,12.24,0,0,1-12.47-14.42A17.33,17.33,0,0,1,72,89.25Zm-1.06,7.3a8.56,8.56,0,0,0-8.22,7.12,6.05,6.05,0,0,0,6.16,7.13,8.56,8.56,0,0,0,8.22-7.13,6,6,0,0,0-6.16-7.12Z" transform="translate(0 -38.93)"/><path class="cls-1" d="M142.84,89.25a12.23,12.23,0,0,1,12.46,14.42,17.31,17.31,0,0,1-16.63,14.42,12.24,12.24,0,0,1-12.46-14.42,17.32,17.32,0,0,1,16.63-14.42Zm-1.05,7.3a8.56,8.56,0,0,0-8.22,7.12,6,6,0,0,0,6.16,7.13,8.54,8.54,0,0,0,8.21-7.13,6,6,0,0,0-6.15-7.12Z" transform="translate(0 -38.93)"/><path class="cls-1" d="M58.2,114s0,1-3.49,1.17-13.24,1.18-13.24,1.18a141.73,141.73,0,0,0,15.67,1.52c6.75.14,8,0,8,0L58.2,114Z" transform="translate(0 -38.93)"/><path class="cls-1" d="M129.3,114s0,1-3.5,1.17-13.24,1.18-13.24,1.18a142,142,0,0,0,15.67,1.52c6.76.14,8,0,8,0L129.3,114Z" transform="translate(0 -38.93)"/></svg>