<?xml version="1.0" encoding="utf-8"?>
<!-- Generator: Adobe Illustrator 22.1.0, SVG Export Plug-In . SVG Version: 6.00 Build 0)  -->
<svg version="1.1" id="Layer_1" xmlns="http://www.w3.org/2000/svg" xmlns:xlink="http://www.w3.org/1999/xlink" x="0px" y="0px"
	 viewBox="0 0 829.9 562.1" style="enable-background:new 0 0 829.9 562.1;" xml:space="preserve">
<style type="text/css">
	.st0{fill:#00A5ED;}
</style>
<g id="Group_305" transform="translate(-498.045 -40.421)">
	<path id="Rectangle_6" class="st0" d="M733.8,227.6h43.5c3.3,0,6,2.7,6,6v43.5c0,3.3-2.7,6-6,6h-43.5c-3.3,0-6-2.7-6-6v-43.5
		C727.8,230.3,730.5,227.6,733.8,227.6z"/>
	<path id="Rectangle_11" class="st0" d="M542.9,535h55.5c3.3,0,6,2.7,6,6v55.5c0,3.3-2.7,6-6,6h-55.5c-3.3,0-6-2.7-6-6V541
		C536.9,537.7,539.6,535,542.9,535z"/>
	<path id="Rectangle_10" class="st0" d="M847.8,115.9h64.5c3.3,0,6,2.7,6,6v64.5c0,3.3-2.7,6-6,6h-64.5c-3.3,0-6-2.7-6-6v-64.5
		C841.8,118.6,844.5,115.9,847.8,115.9z"/>
	<path id="Rectangle_13" class="st0" d="M1088.7,188h78.5c3.3,0,6,2.7,6,6v78.5c0,3.3-2.7,6-6,6h-78.5c-3.3,0-6-2.7-6-6V194
		C1082.7,190.7,1085.4,188,1088.7,188z"/>
	<path id="Rectangle_14" class="st0" d="M1243.4,386.9h78.5c3.3,0,6,2.7,6,6v78.5c0,3.3-2.7,6-6,6h-78.5c-3.3,0-6-2.7-6-6v-78.5
		C1237.4,389.6,1240.1,386.9,1243.4,386.9z"/>
	<path id="Rectangle_9" class="st0" d="M504,118h78.5c3.3,0,6,2.7,6,6v78.5c0,3.3-2.7,6-6,6H504c-3.3,0-6-2.7-6-6V124
		C498,120.6,500.7,118,504,118z"/>
	<path id="Rectangle_8" class="st0" d="M704.7,502.6h78.5c3.3,0,6,2.7,6,6v78.5c0,3.3-2.7,6-6,6h-78.5c-3.3,0-6-2.7-6-6v-78.5
		C698.7,505.3,701.4,502.6,704.7,502.6z"/>
	<path id="Rectangle_12" class="st0" d="M655.2,40.4h78.5c3.3,0,6,2.7,6,6v78.5c0,3.3-2.7,6-6,6h-78.5c-3.3,0-6-2.7-6-6V46.4
		C649.2,43.1,651.9,40.4,655.2,40.4z"/>
	<path id="Rectangle_7" class="st0" d="M575.6,337h43.5c3.3,0,6,2.7,6,6v43.5c0,3.3-2.7,6-6,6h-43.5c-3.3,0-6-2.7-6-6V343
		C569.6,339.7,572.2,337,575.6,337z"/>
</g>
</svg>
